Coordinates
version=1
nRows=19
nColumns=63
inDegrees=yes

Units are S.I. units (second, meters, Newtons, ...)
If the header above contains a line with 'inDegrees', this indicates whether rotational values are in degrees (yes) or radians (no).

endheader
time	pelvis_tilt	pelvis_list	pelvis_rotation	pelvis_tx	pelvis_ty	pelvis_tz	hip_flexion_r	hip_adduction_r	hip_rotation_r	knee_angle_r	knee_angle_r_beta	ankle_angle_r	subtalar_angle_r	mtp_angle_r	hip_flexion_l	hip_adduction_l	hip_rotation_l	knee_angle_l	knee_angle_l_beta	ankle_angle_l	subtalar_angle_l	mtp_angle_l	L5_S1_Flex_Ext	L5_S1_Lat_Bending	L5_S1_axial_rotation	L4_L5_Flex_Ext	L4_L5_Lat_Bending	L4_L5_axial_rotation	L3_L4_Flex_Ext	L3_L4_Lat_Bending	L3_L4_axial_rotation	L2_L3_Flex_Ext	L2_L3_Lat_Bending	L2_L3_axial_rotation	L1_L2_Flex_Ext	L1_L2_Lat_Bending	L1_L2_axial_rotation	L1_T12_Flex_Ext	L1_T12_Lat_Bending	L1_T12_axial_rotation	Abs_r3	Abs_r2	Abs_r1	Abs_t1	Abs_t2	neck_flexion	neck_bending	neck_rotation	arm_flex_r	arm_add_r	arm_rot_r	elbow_flex_r	pro_sup_r	wrist_flex_r	wrist_dev_r	arm_flex_l	arm_add_l	arm_rot_l	elbow_flex_l	pro_sup_l	wrist_flex_l	wrist_dev_l
5.000000	-1.921003	-1.785003	93.026071	-0.112438	0.763643	0.681814	4.213324	-6.190083	-16.118027	16.468629	0.287432	32.512654	11.610495	0.000000	4.308960	2.791002	-9.929564	11.691299	0.204052	31.903483	17.129362	0.000000	-0.081654	-0.364174	0.077762	-0.151640	-0.484352	0.082623	-0.134150	-0.885453	0.082623	-0.093323	-0.885453	0.068042	-0.075824	-0.742624	0.063182	-0.046657	-0.564106	0.058322	-0.583248	-4.119610	0.432491	0.000000	0.000000	18.106270	3.540055	-0.343494	-6.300136	-20.538248	5.132352	146.792404	87.194457	10.807358	-3.081734	4.907940	-32.274236	19.570282	142.913476	40.002452	37.802241	23.541715
5.016667	-1.934538	-2.019823	93.270545	-0.112738	0.763026	0.680925	4.420984	-6.261178	-16.404233	16.602591	0.289770	32.624053	11.548463	0.000000	4.510584	2.840091	-9.657165	11.694887	0.204114	31.934757	17.112300	0.000000	-0.050058	-0.373300	0.186968	-0.092962	-0.496488	0.198653	-0.082240	-0.907641	0.198653	-0.057211	-0.907641	0.163597	-0.046483	-0.761233	0.151911	-0.028603	-0.578241	0.140226	-0.357556	-4.222840	1.039857	0.000000	0.000000	18.530531	3.333816	-1.453798	-7.848880	-20.007026	5.129767	144.724988	86.466265	7.960499	-1.162973	5.121053	-32.006399	20.838056	139.915763	41.131470	35.078319	24.351205
5.033333	-1.951322	-2.246956	93.461019	-0.112999	0.762285	0.680284	4.657679	-6.346241	-16.686590	16.768439	0.292664	32.787369	11.587544	0.000000	4.732784	2.884893	-9.434873	11.734255	0.204801	31.969489	17.053099	0.000000	-0.020243	-0.380621	0.298345	-0.037593	-0.506226	0.316992	-0.033257	-0.925442	0.316992	-0.023136	-0.925442	0.261052	-0.018798	-0.776163	0.242405	-0.011567	-0.589582	0.223759	-0.144593	-4.305663	1.659305	0.000000	0.000000	18.942337	3.062394	-2.529359	-9.212271	-19.480082	5.206864	142.162717	85.839198	5.677627	0.483546	5.367365	-31.634602	22.275953	136.266410	42.960027	32.453871	24.331490
5.050000	-1.957297	-2.458568	93.590340	-0.113237	0.761441	0.679949	4.915375	-6.428609	-16.963221	16.958002	0.295973	32.988549	11.733606	0.000000	4.973705	2.911509	-9.258057	11.816407	0.206235	32.014127	16.938361	0.000000	0.006668	-0.383994	0.406120	0.012384	-0.510711	0.431502	0.010956	-0.933642	0.431502	0.007621	-0.933642	0.355355	0.006192	-0.783040	0.329972	0.003810	-0.594806	0.304590	0.047632	-4.343812	2.258716	0.000000	0.000000	19.312786	2.732863	-3.536706	-10.327364	-18.977063	5.344063	139.071542	85.326244	4.058739	1.849004	5.622396	-31.122179	23.757916	131.921427	45.507393	29.954323	23.422142
5.066667	-1.947702	-2.656940	93.664646	-0.113465	0.760509	0.679964	5.190764	-6.502108	-17.245525	17.156702	0.299441	33.214526	11.986879	0.000000	5.240634	2.915961	-9.114096	11.941951	0.208426	32.069393	16.773934	0.000000	0.029988	-0.382489	0.503916	0.055691	-0.508710	0.535410	0.049268	-0.929983	0.535410	0.034273	-0.929983	0.440926	0.027847	-0.779971	0.409431	0.017135	-0.592475	0.377937	0.214202	-4.326787	2.802627	0.000000	0.000000	19.651523	2.348771	-4.420413	-11.130794	-18.513556	5.552530	135.436656	84.944305	3.072716	2.918547	5.883863	-30.432587	25.267046	126.851564	48.307707	27.638568	21.905814
5.083333	-1.928747	-2.831926	93.657595	-0.113617	0.759530	0.680353	5.476093	-6.565547	-17.494683	17.354518	0.302893	33.451722	12.329492	0.000000	5.516744	2.901091	-9.047036	12.094522	0.211089	32.137491	16.587990	0.000000	0.047774	-0.378403	0.592577	0.088722	-0.503276	0.629613	0.078489	-0.920048	0.629613	0.054601	-0.920048	0.518505	0.044363	-0.771639	0.481469	0.027298	-0.586146	0.444433	0.341248	-4.280568	3.295734	0.000000	0.000000	19.951357	1.958890	-5.188386	-11.574873	-18.068639	5.799077	131.247984	84.702650	2.720657	3.693528	6.144268	-29.586474	26.742650	121.083111	51.658496	25.381363	19.449574
5.100000	-1.902167	-2.988135	93.583953	-0.113729	0.758523	0.681103	5.771890	-6.622900	-17.706455	17.547813	0.306267	33.695532	12.730985	0.000000	5.812406	2.872892	-9.026189	12.282858	0.214376	32.230514	16.375979	0.000000	0.060393	-0.371955	0.664509	0.112155	-0.494700	0.706041	0.099219	-0.904371	0.706041	0.069023	-0.904371	0.581445	0.056081	-0.758490	0.539913	0.034508	-0.576158	0.498382	0.431378	-4.207626	3.695798	0.000000	0.000000	20.210738	1.584769	-5.803724	-11.638067	-17.662668	6.120563	126.533637	84.647056	2.698503	4.155310	6.322033	-28.529324	27.863159	114.711990	55.266314	23.366409	16.660650
5.116667	-1.863968	-3.126993	93.432887	-0.113736	0.757549	0.682183	6.068171	-6.654922	-17.843396	17.702717	0.308971	33.912951	13.140295	0.000000	6.120224	2.818473	-9.096850	12.495545	0.218088	32.338605	16.187509	0.000000	0.068777	-0.364109	0.724083	0.127725	-0.484265	0.769338	0.112993	-0.885295	0.769338	0.078605	-0.885295	0.633573	0.063866	-0.742491	0.588317	0.039299	-0.564005	0.543062	0.491265	-4.118874	4.027133	0.000000	0.000000	20.409734	1.255912	-6.288509	-11.326165	-17.225786	6.391169	121.335576	84.704509	3.020464	4.383637	6.491963	-27.326807	28.953180	107.811532	59.026503	21.405792	13.318652
5.133333	-1.813117	-3.260220	93.223802	-0.113701	0.756602	0.683507	6.371070	-6.663732	-17.899361	17.820821	0.311032	34.102630	13.518269	0.000000	6.448826	2.742791	-9.223797	12.734131	0.222253	32.473967	16.014788	0.000000	0.073856	-0.354544	0.766523	0.137158	-0.471544	0.814430	0.121338	-0.862039	0.814430	0.084410	-0.862039	0.670707	0.068582	-0.722987	0.622800	0.042201	-0.549189	0.574892	0.527544	-4.010675	4.263169	0.000000	0.000000	20.597822	0.973322	-6.650302	-10.700836	-16.796410	6.682496	115.744857	84.944897	3.138867	4.269532	6.485929	-25.976274	29.011607	100.580070	63.677133	19.495726	9.959220
5.150000	-1.765795	-3.393111	92.947849	-0.113526	0.755722	0.684996	6.680252	-6.652647	-17.837098	17.890142	0.312242	34.242734	13.816774	0.000000	6.788532	2.655226	-9.437174	12.977990	0.226509	32.611575	15.881910	0.000000	0.076595	-0.346653	0.802654	0.142245	-0.461049	0.852820	0.125838	-0.842853	0.852820	0.087541	-0.842853	0.702322	0.071126	-0.706896	0.652156	0.043766	-0.536966	0.601991	0.547111	-3.921412	4.464122	0.000000	0.000000	20.791349	0.754301	-6.930913	-9.839567	-16.325088	6.907931	109.851149	85.255760	3.013976	3.892443	6.408925	-24.719672	26.832664	93.276025	70.004186	17.243291	7.012515
5.166667	-1.699095	-3.524606	92.615476	-0.113295	0.754975	0.686559	6.979011	-6.602188	-17.688983	17.895731	0.312339	34.304958	14.054574	0.000000	7.127074	2.538308	-9.724031	13.211242	0.230580	32.748004	15.793851	0.000000	0.077844	-0.336633	0.846437	0.144564	-0.447722	0.899339	0.127890	-0.818490	0.899339	0.088968	-0.818490	0.740632	0.072286	-0.686462	0.687730	0.044480	-0.521445	0.634828	0.556033	-3.808062	4.707629	0.000000	0.000000	20.982243	0.562945	-7.192397	-8.864429	-15.807711	6.912001	103.780693	85.660882	2.744748	3.380518	6.734985	-23.263269	26.844399	85.320792	74.044860	14.968021	3.809656
5.183333	-1.643955	-3.669319	92.271006	-0.112980	0.754385	0.688099	7.269912	-6.536220	-17.465754	17.838038	0.311332	34.283475	14.174622	0.000000	7.465466	2.425339	-10.035908	13.404957	0.233961	32.854122	15.755528	0.000000	0.079673	-0.328742	0.883623	0.147961	-0.437226	0.938849	0.130895	-0.799303	0.938849	0.091059	-0.799303	0.773170	0.073985	-0.670370	0.717944	0.045525	-0.509221	0.662717	0.569099	-3.718792	4.914445	0.000000	0.000000	21.181288	0.453127	-7.306218	-7.772315	-15.226616	6.878217	97.550435	86.072559	2.318060	2.790628	7.397861	-21.697521	29.004516	76.913776	75.795542	12.838433	0.632853
5.200000	-1.647754	-3.813369	91.896662	-0.112449	0.753939	0.689572	7.554158	-6.508383	-17.196895	17.753929	0.309865	34.227828	14.277096	0.000000	7.787618	2.357473	-10.393002	13.558027	0.236632	32.941423	15.761055	0.000000	0.079073	-0.331958	0.923409	0.146846	-0.441504	0.981122	0.129909	-0.807123	0.981122	0.090372	-0.807123	0.807983	0.073427	-0.676929	0.750270	0.045182	-0.514203	0.692557	0.564810	-3.755175	5.135725	0.000000	0.000000	21.421006	0.431002	-7.470899	-6.596345	-14.526737	6.731033	91.158043	86.830996	1.720796	2.104697	8.447221	-20.168431	33.119525	68.318173	75.260568	10.572544	-2.056637
5.216667	-1.739525	-3.960440	91.542660	-0.111710	0.753622	0.690903	7.828755	-6.550569	-16.910087	17.656685	0.308167	34.156015	14.320101	0.000000	8.093654	2.368206	-10.749396	13.663069	0.238466	33.000209	15.816219	0.000000	0.076040	-0.350403	0.952028	0.141213	-0.466037	1.011530	0.124926	-0.851971	1.011530	0.086906	-0.851971	0.833025	0.070610	-0.714543	0.773523	0.043449	-0.542775	0.714021	0.543144	-3.963834	5.294896	0.000000	0.000000	21.703146	0.539095	-7.595496	-5.246382	-13.773735	7.061695	84.587989	87.431754	0.921004	1.406223	9.771835	-18.695543	39.247358	59.764115	72.671965	8.322385	-4.184959
5.233333	-1.925295	-4.118101	91.208665	-0.110779	0.753363	0.692006	8.113085	-6.673608	-16.582284	17.580107	0.306831	34.100651	14.295368	0.000000	8.384836	2.467493	-11.099745	13.718051	0.239425	33.039147	15.912128	0.000000	0.070774	-0.384743	0.978816	0.131433	-0.511708	1.039992	0.116274	-0.935464	1.039992	0.080887	-0.935464	0.856464	0.065720	-0.784568	0.795288	0.040440	-0.595967	0.734112	0.505528	-4.352288	5.443883	0.000000	0.000000	22.049935	0.735712	-7.731781	-3.901196	-12.942720	6.874684	78.016951	89.104998	0.018283	1.085557	11.281973	-17.288739	47.008673	51.492805	68.592740	6.054641	-5.595948
5.250000	-2.181154	-4.272066	90.957678	-0.109748	0.753154	0.692848	8.379163	-6.868509	-16.310515	17.531042	0.305974	34.088258	14.252202	0.000000	8.653418	2.636869	-11.402888	13.741991	0.239843	33.060863	16.062862	0.000000	0.061802	-0.432169	0.986220	0.114772	-0.574785	1.047859	0.101534	-1.050775	1.047859	0.070633	-1.050775	0.862943	0.057389	-0.881279	0.801304	0.035314	-0.669430	0.739665	0.441445	-4.888780	5.485061	0.000000	0.000000	22.445976	1.068335	-7.821270	-2.309194	-12.163498	7.908654	71.313063	89.653053	-1.114624	0.822592	12.840276	-15.980709	56.191323	43.705629	63.494434	3.837953	-6.546664
5.266667	-2.455418	-4.419192	90.762712	-0.108765	0.752913	0.693371	8.634263	-7.090269	-16.059217	17.523372	0.305841	34.129769	14.180309	0.000000	8.888599	2.832083	-11.674497	13.738748	0.239786	33.088719	16.251491	0.000000	0.049897	-0.483019	0.992629	0.092663	-0.642415	1.054669	0.081975	-1.174412	1.054669	0.057027	-1.174412	0.868551	0.046334	-0.984972	0.806511	0.028511	-0.748196	0.744472	0.356406	-5.464008	5.520706	0.000000	0.000000	22.894754	1.403708	-7.920399	-0.860394	-11.650136	7.056412	65.116867	91.484452	-2.743004	0.911355	14.359070	-14.703709	66.456482	36.533740	57.514934	1.876637	-6.949544
5.283333	-2.726628	-4.538405	90.674250	-0.107871	0.752680	0.693540	8.835927	-7.315552	-15.874894	17.534093	0.306028	34.219735	14.079791	0.000000	9.063020	3.035549	-11.859354	13.709544	0.239277	33.105329	16.460016	0.000000	0.035375	-0.533501	0.982492	0.065694	-0.709557	1.043898	0.058117	-1.297155	1.043898	0.040430	-1.297155	0.859681	0.032849	-1.087916	0.798275	0.020213	-0.826393	0.736869	0.252678	-6.035072	5.464326	0.000000	0.000000	23.335890	1.774032	-7.907967	0.805857	-11.142828	8.778049	58.714957	90.874738	-4.257191	0.735372	15.724652	-13.542452	77.200802	30.135174	51.071238	0.211021	-7.087208
5.300000	-2.940987	-4.609090	90.682797	-0.107211	0.752440	0.693354	8.969082	-7.498241	-15.763007	17.569896	0.306653	34.351208	13.962020	0.000000	9.162853	3.197998	-11.954626	13.681241	0.238783	33.129546	16.660377	0.000000	0.017938	-0.572756	0.958516	0.033313	-0.761765	1.018424	0.029471	-1.392599	1.018424	0.020502	-1.392599	0.838702	0.016658	-1.167964	0.778795	0.010250	-0.887199	0.718887	0.128132	-6.479130	5.330981	0.000000	0.000000	23.722954	2.102856	-7.718388	2.547206	-10.704348	12.644971	52.301534	88.130985	-5.586796	0.329044	16.878040	-12.476732	88.025637	24.632986	44.062593	-1.125754	-6.714813
